<?xml version="1.0" standalone="no"?>
<!DOCTYPE svg PUBLIC "-//W3C//DTD SVG 20010904//EN"
 "http://www.w3.org/TR/2001/REC-SVG-20010904/DTD/svg10.dtd">
<svg version="1.0" xmlns="http://www.w3.org/2000/svg"
 width="310.000000pt" height="310.000000pt" viewBox="0 0 310.000000 310.000000"
 preserveAspectRatio="xMidYMid meet">
<metadata>
Created by potrace 1.14, written by Peter Selinger 2001-2017
</metadata>
<g transform="translate(0.000000,310.000000) scale(0.100000,-0.100000)"
fill="#000000" stroke="none">
<path d="M0 1550 l0 -1550 1550 0 1550 0 0 1550 0 1550 -1550 0 -1550 0 0
-1550z m531 678 c9 -7 127 -150 264 -318 137 -168 269 -330 294 -360 l46 -54
5 369 5 370 138 3 137 3 0 -621 0 -620 -115 0 -114 0 -69 83 c-140 168 -488
593 -507 619 -44 60 -45 50 -45 -337 l0 -365 -140 0 -140 0 0 613 c0 338 3
617 7 620 12 13 218 8 234 -5z m1356 -388 c178 -439 210 -515 218 -513 5 0 66
135 135 300 69 164 129 304 133 311 12 18 257 17 257 -1 0 -8 -87 -220 -193
-473 l-194 -459 -141 -3 -141 -3 -14 28 c-14 27 -368 869 -380 906 -6 16 3 17
135 15 l142 -3 43 -105z m1049 -529 c63 -29 89 -72 89 -152 0 -57 -4 -71 -29
-103 -37 -50 -85 -69 -154 -64 -56 5 -91 25 -126 72 -17 21 -21 42 -21 96 0
82 18 113 85 148 53 27 101 28 156 3z"/>
</g>
</svg>
